<svg xmlns="http://www.w3.org/2000/svg" width="1200" height="800" viewBox="0 0 1200 800" role="img" aria-labelledby="title desc">
  <title id="title">Tips for Keeping Roses Fresh Longer</title>
  <desc id="desc">Editorial botanical illustration for Tips for Keeping Roses Fresh Longer.</desc>
  <defs>
    <radialGradient id="glow" cx="50%" cy="20%" r="70%"><stop offset="0" stop-color="#ffffff" stop-opacity="0.95"/><stop offset="1" stop-color="#fefce8"/></radialGradient>
    <linearGradient id="card" x1="0" x2="1" y1="0" y2="1"><stop offset="0" stop-color="#ffffff" stop-opacity="0.92"/><stop offset="1" stop-color="#ffffff" stop-opacity="0.70"/></linearGradient>
  </defs>
  <rect width="1200" height="800" fill="url(#glow)"/>
  <circle cx="1050" cy="120" r="180" fill="#ca8a04" opacity="0.16"/>
  <circle cx="150" cy="690" r="220" fill="#f97316" opacity="0.14"/>
  <path d="M0 610 C180 520 310 620 475 545 C665 460 785 565 950 500 C1080 450 1140 500 1200 460 L1200 800 L0 800 Z" fill="#a855f7" opacity="0.14"/>
  <g transform="translate(185 470) scale(1.05)"><line x1="0" y1="100" x2="0" y2="16" stroke="#a855f7" stroke-width="10" stroke-linecap="round"/><ellipse cx="0" cy="-34" rx="24" ry="52" fill="#ca8a04" transform="rotate(0)"/><ellipse cx="0" cy="-34" rx="24" ry="52" fill="#ca8a04" transform="rotate(72)"/><ellipse cx="0" cy="-34" rx="24" ry="52" fill="#ca8a04" transform="rotate(144)"/><ellipse cx="0" cy="-34" rx="24" ry="52" fill="#ca8a04" transform="rotate(216)"/><ellipse cx="0" cy="-34" rx="24" ry="52" fill="#ca8a04" transform="rotate(288)"/><circle cx="0" cy="0" r="24" fill="#facc15"/></g><g transform="translate(330 440) scale(1.05)"><line x1="0" y1="100" x2="0" y2="16" stroke="#a855f7" stroke-width="10" stroke-linecap="round"/><ellipse cx="0" cy="-34" rx="24" ry="52" fill="#f97316" transform="rotate(0)"/><ellipse cx="0" cy="-34" rx="24" ry="52" fill="#f97316" transform="rotate(72)"/><ellipse cx="0" cy="-34" rx="24" ry="52" fill="#f97316" transform="rotate(144)"/><ellipse cx="0" cy="-34" rx="24" ry="52" fill="#f97316" transform="rotate(216)"/><ellipse cx="0" cy="-34" rx="24" ry="52" fill="#f97316" transform="rotate(288)"/><circle cx="0" cy="0" r="24" fill="#facc15"/></g><g transform="translate(910 455) scale(1.25)"><line x1="0" y1="100" x2="0" y2="16" stroke="#a855f7" stroke-width="10" stroke-linecap="round"/><ellipse cx="0" cy="-34" rx="24" ry="52" fill="#ffffff" transform="rotate(0)"/><ellipse cx="0" cy="-34" rx="24" ry="52" fill="#ffffff" transform="rotate(72)"/><ellipse cx="0" cy="-34" rx="24" ry="52" fill="#ffffff" transform="rotate(144)"/><ellipse cx="0" cy="-34" rx="24" ry="52" fill="#ffffff" transform="rotate(216)"/><ellipse cx="0" cy="-34" rx="24" ry="52" fill="#ffffff" transform="rotate(288)"/><circle cx="0" cy="0" r="24" fill="#facc15"/></g><g transform="translate(1035 500) scale(1.25)"><line x1="0" y1="100" x2="0" y2="16" stroke="#a855f7" stroke-width="10" stroke-linecap="round"/><ellipse cx="0" cy="-34" rx="24" ry="52" fill="#ca8a04" transform="rotate(0)"/><ellipse cx="0" cy="-34" rx="24" ry="52" fill="#ca8a04" transform="rotate(72)"/><ellipse cx="0" cy="-34" rx="24" ry="52" fill="#ca8a04" transform="rotate(144)"/><ellipse cx="0" cy="-34" rx="24" ry="52" fill="#ca8a04" transform="rotate(216)"/><ellipse cx="0" cy="-34" rx="24" ry="52" fill="#ca8a04" transform="rotate(288)"/><circle cx="0" cy="0" r="24" fill="#facc15"/></g><g transform="translate(760 510) scale(0.95)"><line x1="0" y1="100" x2="0" y2="16" stroke="#a855f7" stroke-width="10" stroke-linecap="round"/><ellipse cx="0" cy="-34" rx="24" ry="52" fill="#f97316" transform="rotate(0)"/><ellipse cx="0" cy="-34" rx="24" ry="52" fill="#f97316" transform="rotate(72)"/><ellipse cx="0" cy="-34" rx="24" ry="52" fill="#f97316" transform="rotate(144)"/><ellipse cx="0" cy="-34" rx="24" ry="52" fill="#f97316" transform="rotate(216)"/><ellipse cx="0" cy="-34" rx="24" ry="52" fill="#f97316" transform="rotate(288)"/><circle cx="0" cy="0" r="24" fill="#facc15"/></g><g transform="translate(475 520) scale(1.05)"><line x1="0" y1="100" x2="0" y2="16" stroke="#a855f7" stroke-width="10" stroke-linecap="round"/><ellipse cx="0" cy="-34" rx="24" ry="52" fill="#ffffff" transform="rotate(0)"/><ellipse cx="0" cy="-34" rx="24" ry="52" fill="#ffffff" transform="rotate(72)"/><ellipse cx="0" cy="-34" rx="24" ry="52" fill="#ffffff" transform="rotate(144)"/><ellipse cx="0" cy="-34" rx="24" ry="52" fill="#ffffff" transform="rotate(216)"/><ellipse cx="0" cy="-34" rx="24" ry="52" fill="#ffffff" transform="rotate(288)"/><circle cx="0" cy="0" r="24" fill="#facc15"/></g>
  <rect x="58" y="72" width="720" height="365" rx="36" fill="url(#card)" stroke="#ffffff" stroke-width="2"/>
  <text x="90" y="155" font-family="Inter, ui-sans-serif, system-ui, -apple-system, Segoe UI, Arial" font-size="48" font-weight="800" fill="#3f6212"><tspan x="90" dy="0">Tips for Keeping Roses Fresh</tspan><tspan x="90" dy="58">Longer</tspan></text>
  <text x="90" y="335" font-family="Inter, ui-sans-serif, system-ui, -apple-system, Segoe UI, Arial" font-size="24" font-weight="500" fill="#475569"><tspan x="90" dy="0">A bouquet of red and pink roses arranged in</tspan><tspan x="90" dy="34">a clear glass vase, freshly cut stems…</tspan></text>
  <text x="90" y="405" font-family="Inter, ui-sans-serif, system-ui, -apple-system, Segoe UI, Arial" font-size="18" font-weight="700" letter-spacing="4" fill="#ca8a04">YOR FLOWER GUIDE</text>
</svg>
